<?xml version="1.0" encoding="iso-8859-1"?>
<!-- Uploaded to: SVG Repo, www.svgrepo.com, Generator: SVG Repo Mixer Tools -->
<!DOCTYPE svg PUBLIC "-//W3C//DTD SVG 1.1//EN" "http://www.w3.org/Graphics/SVG/1.1/DTD/svg11.dtd">
<svg fill="#000000" version="1.1" id="Capa_1" xmlns="http://www.w3.org/2000/svg" xmlns:xlink="http://www.w3.org/1999/xlink" 
	 width="700px" height="700px" viewBox="0 0 31.703 31.703"
	 xml:space="preserve">
<g>
	<g>
		<path d="M2.19,30.479c0,0.676,0.547,1.225,1.223,1.225h4.371c0.676,0,1.224-0.549,1.224-1.225v-0.634h14.225v0.634
			c0,0.676,0.547,1.225,1.224,1.225h4.368c0.677,0,1.226-0.549,1.226-1.225v-0.634c0.83,0,1.502-0.673,1.502-1.503V8.011
			c0-1.519-1.23-2.75-2.75-2.75h-5.73V2.75c0-1.519-1.23-2.75-2.75-2.75h-9.636c-1.431,0-2.59,1.16-2.59,2.591v2.67H2.9
			c-1.519,0-2.75,1.231-2.75,2.75v19.794c0,1.126,0.913,2.04,2.04,2.04V30.479z M10.779,4.016c0-0.706,0.572-1.278,1.278-1.278
			h7.051c0.707,0,1.278,0.572,1.278,1.278v1.245h-9.608L10.779,4.016L10.779,4.016z M9.437,16.77c0-0.933,0.754-1.687,1.686-1.687
			h2.394v-2.394c0-0.932,0.754-1.686,1.686-1.686h0.762c0.931,0,1.687,0.754,1.687,1.686v2.394h2.394
			c0.93,0,1.686,0.754,1.686,1.687v0.707c0,0.933-0.756,1.688-1.686,1.688h-2.394v2.445c0,0.933-0.756,1.688-1.687,1.688h-0.762
			c-0.931,0-1.686-0.755-1.686-1.688v-2.445h-2.394c-0.931,0-1.686-0.755-1.686-1.688V16.77z"/>
	</g>
</g>
</svg>